<mxfile host="app.diagrams.net" agent="Mozilla/5.0 (Windows NT 10.0; Win64; x64) AppleWebKit/537.36 (KHTML, like Gecko) Chrome/129.0.0.0 Safari/537.36 Edg/129.0.0.0" version="24.7.17">
  <diagram name="第 1 页" id="xmvy1-ESeEZ3ZNPqH_cW">
    <mxGraphModel dx="1386" dy="788" grid="1" gridSize="10" guides="1" tooltips="1" connect="1" arrows="1" fold="1" page="1" pageScale="1" pageWidth="827" pageHeight="1169" math="0" shadow="0">
      <root>
        <mxCell id="0" />
        <mxCell id="1" parent="0" />
        <mxCell id="0qa-NJbj4pNz9Wg9-7FD-1" value="service" style="rounded=1;whiteSpace=wrap;html=1;" parent="1" vertex="1">
          <mxGeometry x="200" y="200" width="120" height="60" as="geometry" />
        </mxCell>
        <mxCell id="0qa-NJbj4pNz9Wg9-7FD-2" value="" style="endArrow=classic;html=1;rounded=0;exitX=0.5;exitY=0;exitDx=0;exitDy=0;" parent="1" source="0qa-NJbj4pNz9Wg9-7FD-1" target="0qa-NJbj4pNz9Wg9-7FD-3" edge="1">
          <mxGeometry width="50" height="50" relative="1" as="geometry">
            <mxPoint x="390" y="430" as="sourcePoint" />
            <mxPoint x="440" y="380" as="targetPoint" />
          </mxGeometry>
        </mxCell>
        <mxCell id="0qa-NJbj4pNz9Wg9-7FD-3" value="service_id" style="ellipse;whiteSpace=wrap;html=1;" parent="1" vertex="1">
          <mxGeometry x="70" y="40" width="120" height="80" as="geometry" />
        </mxCell>
        <mxCell id="0qa-NJbj4pNz9Wg9-7FD-4" value="" style="endArrow=classic;html=1;rounded=0;exitX=0.5;exitY=0;exitDx=0;exitDy=0;" parent="1" source="0qa-NJbj4pNz9Wg9-7FD-1" target="0qa-NJbj4pNz9Wg9-7FD-5" edge="1">
          <mxGeometry width="50" height="50" relative="1" as="geometry">
            <mxPoint x="420" y="200" as="sourcePoint" />
            <mxPoint x="600" y="380" as="targetPoint" />
          </mxGeometry>
        </mxCell>
        <mxCell id="0qa-NJbj4pNz9Wg9-7FD-5" value="service_name" style="ellipse;whiteSpace=wrap;html=1;" parent="1" vertex="1">
          <mxGeometry x="230" y="40" width="120" height="80" as="geometry" />
        </mxCell>
        <mxCell id="0qa-NJbj4pNz9Wg9-7FD-6" value="service_status" style="ellipse;whiteSpace=wrap;html=1;" parent="1" vertex="1">
          <mxGeometry x="380" y="40" width="120" height="80" as="geometry" />
        </mxCell>
        <mxCell id="0qa-NJbj4pNz9Wg9-7FD-7" value="" style="endArrow=classic;html=1;rounded=0;exitX=0.5;exitY=0;exitDx=0;exitDy=0;entryX=0.5;entryY=1;entryDx=0;entryDy=0;" parent="1" source="0qa-NJbj4pNz9Wg9-7FD-1" target="0qa-NJbj4pNz9Wg9-7FD-6" edge="1">
          <mxGeometry width="50" height="50" relative="1" as="geometry">
            <mxPoint x="270" y="210" as="sourcePoint" />
            <mxPoint x="290" y="129" as="targetPoint" />
          </mxGeometry>
        </mxCell>
        <mxCell id="6F4WIK_tuikPwrHk3wV7-5" value="work_order_check" style="rounded=1;whiteSpace=wrap;html=1;" vertex="1" parent="1">
          <mxGeometry x="200" y="570" width="120" height="60" as="geometry" />
        </mxCell>
        <mxCell id="6F4WIK_tuikPwrHk3wV7-15" style="rounded=0;orthogonalLoop=1;jettySize=auto;html=1;exitX=0.5;exitY=0;exitDx=0;exitDy=0;entryX=0.5;entryY=1;entryDx=0;entryDy=0;" edge="1" parent="1" source="6F4WIK_tuikPwrHk3wV7-6" target="6F4WIK_tuikPwrHk3wV7-13">
          <mxGeometry relative="1" as="geometry" />
        </mxCell>
        <mxCell id="6F4WIK_tuikPwrHk3wV7-6" value="work_order" style="rounded=1;whiteSpace=wrap;html=1;" vertex="1" parent="1">
          <mxGeometry x="650" y="210" width="120" height="60" as="geometry" />
        </mxCell>
        <mxCell id="6F4WIK_tuikPwrHk3wV7-7" value="" style="endArrow=classic;html=1;rounded=0;exitX=0.5;exitY=0;exitDx=0;exitDy=0;" edge="1" parent="1" source="6F4WIK_tuikPwrHk3wV7-6" target="6F4WIK_tuikPwrHk3wV7-8">
          <mxGeometry width="50" height="50" relative="1" as="geometry">
            <mxPoint x="840" y="440" as="sourcePoint" />
            <mxPoint x="890" y="390" as="targetPoint" />
          </mxGeometry>
        </mxCell>
        <mxCell id="6F4WIK_tuikPwrHk3wV7-8" value="service_id" style="ellipse;whiteSpace=wrap;html=1;" vertex="1" parent="1">
          <mxGeometry x="520" y="50" width="120" height="80" as="geometry" />
        </mxCell>
        <mxCell id="6F4WIK_tuikPwrHk3wV7-9" value="" style="endArrow=classic;html=1;rounded=0;exitX=0.5;exitY=0;exitDx=0;exitDy=0;" edge="1" parent="1" source="6F4WIK_tuikPwrHk3wV7-6" target="6F4WIK_tuikPwrHk3wV7-10">
          <mxGeometry width="50" height="50" relative="1" as="geometry">
            <mxPoint x="870" y="210" as="sourcePoint" />
            <mxPoint x="1050" y="390" as="targetPoint" />
          </mxGeometry>
        </mxCell>
        <mxCell id="6F4WIK_tuikPwrHk3wV7-10" value="order_id" style="ellipse;whiteSpace=wrap;html=1;" vertex="1" parent="1">
          <mxGeometry x="680" y="50" width="120" height="80" as="geometry" />
        </mxCell>
        <mxCell id="6F4WIK_tuikPwrHk3wV7-11" value="cext1&lt;br&gt;工单编号" style="ellipse;whiteSpace=wrap;html=1;" vertex="1" parent="1">
          <mxGeometry x="830" y="50" width="120" height="80" as="geometry" />
        </mxCell>
        <mxCell id="6F4WIK_tuikPwrHk3wV7-12" value="" style="endArrow=classic;html=1;rounded=0;exitX=0.5;exitY=0;exitDx=0;exitDy=0;entryX=0.5;entryY=1;entryDx=0;entryDy=0;" edge="1" parent="1" source="6F4WIK_tuikPwrHk3wV7-6" target="6F4WIK_tuikPwrHk3wV7-11">
          <mxGeometry width="50" height="50" relative="1" as="geometry">
            <mxPoint x="720" y="220" as="sourcePoint" />
            <mxPoint x="740" y="139" as="targetPoint" />
          </mxGeometry>
        </mxCell>
        <mxCell id="6F4WIK_tuikPwrHk3wV7-13" value="check_status&lt;br&gt;工单复核状态：&lt;br&gt;1未复核，2已复核，3已抽查复核" style="ellipse;whiteSpace=wrap;html=1;" vertex="1" parent="1">
          <mxGeometry x="980" y="50" width="120" height="80" as="geometry" />
        </mxCell>
        <mxCell id="6F4WIK_tuikPwrHk3wV7-16" value="service_log" style="rounded=1;whiteSpace=wrap;html=1;" vertex="1" parent="1">
          <mxGeometry x="280" y="460" width="120" height="60" as="geometry" />
        </mxCell>
        <mxCell id="6F4WIK_tuikPwrHk3wV7-17" value="" style="endArrow=classic;html=1;rounded=0;exitX=0.5;exitY=0;exitDx=0;exitDy=0;" edge="1" parent="1" source="6F4WIK_tuikPwrHk3wV7-16" target="6F4WIK_tuikPwrHk3wV7-18">
          <mxGeometry width="50" height="50" relative="1" as="geometry">
            <mxPoint x="470" y="690" as="sourcePoint" />
            <mxPoint x="520" y="640" as="targetPoint" />
          </mxGeometry>
        </mxCell>
        <mxCell id="6F4WIK_tuikPwrHk3wV7-18" value="order_id" style="ellipse;whiteSpace=wrap;html=1;" vertex="1" parent="1">
          <mxGeometry x="150" y="300" width="120" height="80" as="geometry" />
        </mxCell>
        <mxCell id="6F4WIK_tuikPwrHk3wV7-19" value="" style="endArrow=classic;html=1;rounded=0;exitX=0.5;exitY=0;exitDx=0;exitDy=0;" edge="1" parent="1" source="6F4WIK_tuikPwrHk3wV7-16" target="6F4WIK_tuikPwrHk3wV7-20">
          <mxGeometry width="50" height="50" relative="1" as="geometry">
            <mxPoint x="500" y="460" as="sourcePoint" />
            <mxPoint x="680" y="640" as="targetPoint" />
          </mxGeometry>
        </mxCell>
        <mxCell id="6F4WIK_tuikPwrHk3wV7-20" value="start_img&lt;br&gt;img_url&lt;br&gt;end_img" style="ellipse;whiteSpace=wrap;html=1;" vertex="1" parent="1">
          <mxGeometry x="370" y="300" width="120" height="80" as="geometry" />
        </mxCell>
        <mxCell id="6F4WIK_tuikPwrHk3wV7-28" value="work_order_check" style="rounded=1;whiteSpace=wrap;html=1;" vertex="1" parent="1">
          <mxGeometry x="710" y="620" width="120" height="60" as="geometry" />
        </mxCell>
        <mxCell id="6F4WIK_tuikPwrHk3wV7-29" value="" style="endArrow=classic;html=1;rounded=0;exitX=0.5;exitY=0;exitDx=0;exitDy=0;" edge="1" parent="1" source="6F4WIK_tuikPwrHk3wV7-28" target="6F4WIK_tuikPwrHk3wV7-30">
          <mxGeometry width="50" height="50" relative="1" as="geometry">
            <mxPoint x="900" y="850" as="sourcePoint" />
            <mxPoint x="950" y="800" as="targetPoint" />
          </mxGeometry>
        </mxCell>
        <mxCell id="6F4WIK_tuikPwrHk3wV7-30" value="order_no" style="ellipse;whiteSpace=wrap;html=1;" vertex="1" parent="1">
          <mxGeometry x="580" y="460" width="120" height="80" as="geometry" />
        </mxCell>
        <mxCell id="6F4WIK_tuikPwrHk3wV7-31" value="" style="endArrow=classic;html=1;rounded=0;exitX=0.5;exitY=0;exitDx=0;exitDy=0;" edge="1" parent="1" source="6F4WIK_tuikPwrHk3wV7-28" target="6F4WIK_tuikPwrHk3wV7-32">
          <mxGeometry width="50" height="50" relative="1" as="geometry">
            <mxPoint x="930" y="620" as="sourcePoint" />
            <mxPoint x="1110" y="800" as="targetPoint" />
          </mxGeometry>
        </mxCell>
        <mxCell id="6F4WIK_tuikPwrHk3wV7-32" value="check_result:&lt;div&gt;1通过，0驳回，3不完全符合标准，部分退款&lt;/div&gt;" style="ellipse;whiteSpace=wrap;html=1;" vertex="1" parent="1">
          <mxGeometry x="740" y="460" width="120" height="80" as="geometry" />
        </mxCell>
        <mxCell id="6F4WIK_tuikPwrHk3wV7-33" value="service_status" style="ellipse;whiteSpace=wrap;html=1;" vertex="1" parent="1">
          <mxGeometry x="890" y="460" width="120" height="80" as="geometry" />
        </mxCell>
        <mxCell id="6F4WIK_tuikPwrHk3wV7-34" value="" style="endArrow=classic;html=1;rounded=0;exitX=0.5;exitY=0;exitDx=0;exitDy=0;entryX=0.5;entryY=1;entryDx=0;entryDy=0;" edge="1" parent="1" source="6F4WIK_tuikPwrHk3wV7-28" target="6F4WIK_tuikPwrHk3wV7-33">
          <mxGeometry width="50" height="50" relative="1" as="geometry">
            <mxPoint x="780" y="630" as="sourcePoint" />
            <mxPoint x="800" y="549" as="targetPoint" />
          </mxGeometry>
        </mxCell>
      </root>
    </mxGraphModel>
  </diagram>
</mxfile>
